<svg xmlns="http://www.w3.org/2000/svg" width="500" height="500" viewBox="0 0 500 500"><rect width="500" height="500" rx="112" fill="#1c1a17"></rect><g transform="translate(250 252) scale(1.38) translate(-120 -129)"><defs><mask id="mt"><rect x="-60" y="-60" width="360" height="380" fill="#fff"></rect><g fill="none" stroke="#000" stroke-width="30" stroke-linejoin="miter"><path d="M88 66 V196"></path><path d="M88 66 H143 L170 98 L143 130 H88 Z"></path></g></mask><clipPath id="ft"><rect x="-40" y="129" width="320" height="200"></rect></clipPath></defs><g transform="rotate(-10 120 129)"><ellipse cx="120" cy="129" rx="128" ry="34" fill="none" stroke="#78350f" stroke-width="10"></ellipse></g><g mask="url(#mt)"><path fill="#fbbf24" d="M120 5 L2 46 L22 198 L120 253 Z"></path><path fill="#f59e0b" d="M120 5 L238 46 L218 198 L120 253 Z"></path></g><g transform="rotate(-10 120 129)"><ellipse clip-path="url(#ft)" cx="120" cy="129" rx="128" ry="34" fill="none" stroke="#1c1a17" stroke-width="22"></ellipse><ellipse clip-path="url(#ft)" cx="120" cy="129" rx="128" ry="34" fill="none" stroke="#fde68a" stroke-width="10"></ellipse><g transform="translate(230.9 146.0)"><g transform="rotate(10) scale(1.5) translate(-4 -4)"><line x1="9" y1="9" x2="21" y2="21" stroke="#1c1a17" stroke-width="14" stroke-linecap="round"></line><circle r="16" fill="#1c1a17"></circle><line x1="9" y1="9" x2="21" y2="21" stroke="#fde68a" stroke-width="7" stroke-linecap="round"></line><circle r="12" fill="#1c1a17" stroke="#fde68a" stroke-width="5"></circle></g></g></g></g></svg>
